<svg width="371" height="307" viewBox="0 0 371 307" fill="none" xmlns="http://www.w3.org/2000/svg">
<g clip-path="url(#clip0_865_8049)">
<path d="M165.111 58.3397C165.039 58.3397 164.967 58.3371 164.895 58.3326C160.136 58.0285 143.851 55.7377 134.126 39.0151C133.408 37.7808 133.549 36.2102 134.479 35.108C142.601 28.5392 148.946 21.43 152.69 13.5306C153.367 12.7292 154.381 12.2911 155.408 12.3091C156.463 12.3339 157.435 12.8277 158.075 13.6639C162.692 19.6976 171.808 30.3788 180.98 34.1236C182.011 34.5449 182.757 35.3998 183.028 36.4705C183.296 37.5322 183.048 38.6267 182.347 39.4732L167.758 57.0899C167.102 57.8823 166.125 58.3397 165.111 58.3397Z" fill="#ADCFDC"/>
<path d="M137.49 36.1687C137.242 36.4638 137.196 36.8845 137.377 37.2169C146.175 53.3281 161.905 54.592 164.969 54.6816C165.264 54.6983 165.54 54.5663 165.728 54.3402L180.212 36.8503C180.417 36.6023 180.48 36.286 180.386 35.9806C180.29 35.674 180.057 35.4453 179.744 35.3551C169.907 32.4961 159.585 19.2535 156.656 15.2626C156.485 15.0294 156.22 14.8896 155.931 14.8799C155.633 14.877 155.362 14.9933 155.172 15.2175C150.981 23.3439 145.113 30.3451 137.49 36.1687Z" fill="white"/>
<path d="M137.49 36.1687C137.242 36.4638 137.196 36.8845 137.377 37.2169C146.175 53.3281 161.905 54.592 164.969 54.6816C165.264 54.6983 165.54 54.5663 165.728 54.3402L180.212 36.8503C180.417 36.6023 180.48 36.286 180.386 35.9806C180.29 35.674 180.057 35.4453 179.744 35.3551C169.907 32.4961 159.585 19.2535 156.656 15.2626C156.485 15.0294 156.22 14.8896 155.931 14.8799C155.633 14.877 155.362 14.9933 155.172 15.2175C150.981 23.3439 145.113 30.3451 137.49 36.1687Z" fill="#3A7D95" fill-opacity="0.05"/>
<path d="M144.784 39.9426L157.913 26.6299C158.81 25.7199 157.404 24.3193 156.506 25.2305L143.377 38.5432C142.479 39.4532 143.885 40.8538 144.784 39.9426Z" fill="#ADCFDC"/>
<path d="M152.708 43.6939C156.332 40.4641 159.48 36.7244 162.059 32.6209C162.739 31.5377 161.018 30.5432 160.34 31.6221C157.848 35.5893 154.804 39.1724 151.301 42.2945C150.345 43.1463 151.756 44.5421 152.708 43.6939Z" fill="#E6E6E6"/>
<path d="M159.85 48.1845C163.149 44.5502 165.957 40.4941 168.168 36.1189C168.742 34.9838 167.026 33.9806 166.45 35.12C164.314 39.3473 161.631 43.273 158.443 46.7851C157.587 47.7284 158.99 49.1323 159.85 48.1845Z" fill="#E6E6E6"/>
<path d="M177.051 63.617C176.979 63.617 176.907 63.6145 176.835 63.61C172.076 63.3059 155.792 61.0151 146.066 44.2925C145.348 43.0582 145.49 41.4876 146.42 40.3853C154.136 33.7299 159.945 26.4522 164.63 18.8079C165.307 18.0065 166.322 17.5684 167.349 17.5865C168.403 17.6113 169.375 18.1051 170.015 18.9413C174.632 24.975 183.748 35.6561 192.92 39.4009C193.951 39.8223 194.697 40.6771 194.968 41.7478C195.236 42.8095 194.988 43.904 194.287 44.7505L179.698 62.3673C179.042 63.1597 178.065 63.617 177.051 63.617Z" fill="#ADCFDC"/>
<path d="M149.43 41.4461C149.182 41.7411 149.136 42.1618 149.317 42.4942C158.116 58.6054 173.845 59.8694 176.909 59.9589C177.204 59.9757 177.481 59.8436 177.668 59.6175L192.152 42.1277C192.357 41.8796 192.42 41.5633 192.326 41.258C192.231 40.9513 191.997 40.7226 191.684 40.6324C181.847 37.7734 171.525 24.5309 168.596 20.5399C168.425 20.3067 168.16 20.1669 167.871 20.1573C167.573 20.1544 167.302 20.2707 167.113 20.4949C162.092 28.7911 156.444 36.1453 149.43 41.4461Z" fill="white"/>
<path d="M149.43 41.4461C149.182 41.7411 149.136 42.1618 149.317 42.4942C158.116 58.6054 173.845 59.8694 176.909 59.9589C177.204 59.9757 177.481 59.8436 177.668 59.6175L192.152 42.1277C192.357 41.8796 192.42 41.5633 192.326 41.258C192.231 40.9513 191.997 40.7226 191.684 40.6324C181.847 37.7734 171.525 24.5309 168.596 20.5399C168.425 20.3067 168.16 20.1669 167.871 20.1573C167.573 20.1544 167.302 20.2707 167.113 20.4949C162.092 28.7911 156.444 36.1453 149.43 41.4461Z" fill="#3A7D95" fill-opacity="0.05"/>
<path d="M156.724 45.2199L169.853 31.9072C170.751 30.9972 169.345 29.5967 168.446 30.5079L155.317 43.8206C154.419 44.7306 155.825 46.1311 156.724 45.2199Z" fill="#ADCFDC"/>
<path d="M164.648 48.9712C168.272 45.7414 171.421 42.0018 173.999 37.8983C174.68 36.8151 172.959 35.8205 172.281 36.8994C169.788 40.8666 166.744 44.4497 163.241 47.5718C162.285 48.4237 163.697 49.8195 164.648 48.9712Z" fill="#ADCFDC"/>
<path d="M171.79 53.4618C175.089 49.8276 177.898 45.7715 180.109 41.3962C180.682 40.2612 178.966 39.2579 178.39 40.3973C176.254 44.6246 173.571 48.5503 170.383 52.0625C169.527 53.0057 170.93 54.4097 171.79 53.4618Z" fill="#ADCFDC"/>
<path d="M307.73 186.317C307.658 186.317 307.586 186.315 307.514 186.31C302.755 186.006 286.471 183.715 276.745 166.993C276.027 165.758 276.169 164.188 277.099 163.086L295.31 141.508C295.986 140.707 297.001 140.269 298.028 140.287C299.082 140.311 300.436 140.622 300.694 141.641C302.792 149.922 311.828 160.675 323.599 162.101C324.706 162.235 325.377 163.377 325.647 164.448C325.916 165.51 325.667 166.604 324.966 167.451L310.377 185.067C309.721 185.86 308.744 186.317 307.73 186.317Z" fill="#ADCFDC"/>
<path d="M280.109 164.146C279.861 164.441 279.816 164.862 279.997 165.194C288.795 181.306 304.524 182.57 307.588 182.659C307.883 182.676 308.16 182.544 308.347 182.318L322.831 164.828C323.036 164.58 323.099 164.264 323.005 163.958C322.91 163.652 322.688 163.348 322.363 163.333C309.842 162.748 299.784 149.282 299.276 143.24C299.251 142.952 298.84 142.867 298.55 142.857C298.252 142.855 297.981 142.971 297.792 143.195L280.109 164.146Z" fill="white"/>
<path d="M280.109 164.146C279.861 164.441 279.816 164.862 279.997 165.194C288.795 181.306 304.524 182.57 307.588 182.659C307.883 182.676 308.16 182.544 308.347 182.318L322.831 164.828C323.036 164.58 323.099 164.264 323.005 163.958C322.91 163.652 322.688 163.348 322.363 163.333C309.842 162.748 299.784 149.282 299.276 143.24C299.251 142.952 298.84 142.867 298.55 142.857C298.252 142.855 297.981 142.971 297.792 143.195L280.109 164.146Z" fill="#3A7D95" fill-opacity="0.05"/>
<path d="M287.403 167.92L300.532 154.607C301.43 153.697 300.024 152.297 299.125 153.208L285.996 166.521C285.098 167.431 286.505 168.831 287.403 167.92Z" fill="#ADCFDC"/>
<path d="M295.328 171.671C298.951 168.442 302.1 164.702 304.678 160.598C305.359 159.515 303.638 158.521 302.96 159.6C300.467 163.567 297.423 167.15 293.92 170.272C292.965 171.124 294.376 172.52 295.328 171.671Z" fill="#ADCFDC"/>
<path d="M302.47 176.162C305.769 172.528 308.577 168.472 310.788 164.096C311.361 162.961 309.645 161.958 309.069 163.098C306.933 167.325 304.251 171.251 301.062 174.763C300.206 175.706 301.609 177.11 302.47 176.162Z" fill="#ADCFDC"/>
<path d="M253.174 301.334L245.307 301.333L241.565 271.157L253.176 271.158L253.174 301.334Z" fill="#FFB6B6"/>
<path d="M226.222 301.156C225.977 301.566 225.848 302.89 225.848 303.367C225.848 304.833 227.043 306.022 228.518 306.022H252.88C253.886 306.022 254.701 305.211 254.701 304.211V303.202C254.701 303.202 255.907 300.171 253.425 296.434C253.425 296.434 250.341 299.36 245.733 294.777L244.375 292.329L234.538 299.483L229.086 300.151C227.893 300.297 226.835 300.128 226.222 301.156Z" fill="#2F2E41"/>
<path d="M325.817 285.895L319.116 289.993L300.03 266.242L309.919 260.192L325.817 285.895Z" fill="#FFB6B6"/>
<path d="M302.767 299.788C302.775 300.265 303.362 301.46 303.614 301.866C304.386 303.115 306.031 303.505 307.287 302.736L328.037 290.042C328.894 289.517 329.161 288.402 328.634 287.55L328.103 286.691C328.103 286.691 327.532 283.48 323.45 281.591C323.45 281.591 322.365 285.69 316.025 284.188L313.578 282.811L308.969 294.03L304.677 297.439C303.738 298.185 302.748 298.593 302.767 299.788Z" fill="#2F2E41"/>
<path d="M276.373 160.197C275.983 158.508 276.013 156.868 276.378 155.51L271.638 139.659L279.356 137.578L283.333 153.881C284.255 154.938 284.999 156.397 285.388 158.086C286.278 161.945 284.981 165.546 282.491 166.129C280.002 166.712 277.262 164.056 276.373 160.197Z" fill="#FFB6B6"/>
<path d="M232.462 54.5419C232.462 54.5419 244.899 49.1584 251.844 56.938C258.165 64.0191 270.996 85.327 269.679 87.4002L282.311 146.761L272.947 149.63L248.109 81.351L232.462 54.5419Z" fill="#3A7D95"/>
<path d="M218.764 142.512L225.172 216.86L240.659 285.897L257.213 284.304L249.203 208.894L254.105 141.877L218.764 142.512Z" fill="#14333D"/>
<path d="M220.089 158.645L260.002 221.833L305.542 276.167L319.528 267.216L277.702 203.813C271.3 175.885 264.211 150.032 251.219 141.995L220.089 158.645Z" fill="#14333D"/>
<path d="M222.418 158.954C220.546 158.954 218.733 158.298 217.255 157.052C215.271 155.379 214.238 152.94 214.42 150.361L217.901 117.14L216.572 80.8642L216.58 80.8249L220.714 61.1118C220.754 60.4853 220.887 59.8221 221.1 59.1853L227.205 40.9301C228.303 37.6466 231.378 35.4404 234.858 35.4404H240.257C242.96 35.4404 245.469 36.7756 246.968 39.0123L251.695 46.0626C252.009 46.5309 252.274 47.0338 252.482 47.5572L262.916 73.7456C263.247 74.5769 263.436 75.4515 263.476 76.3447L266.713 149.025C266.821 151.438 265.845 153.747 264.036 155.36C262.238 156.964 259.838 157.674 257.459 157.308C243.834 155.216 231.909 156.927 224.304 158.731C223.675 158.88 223.043 158.954 222.418 158.954Z" fill="#3A7D95"/>
<path d="M235.835 33.8156C244.407 33.8156 251.357 26.9044 251.357 18.379C251.357 9.85358 244.407 2.94238 235.835 2.94238C227.262 2.94238 220.312 9.85358 220.312 18.379C220.312 26.9044 227.262 33.8156 235.835 33.8156Z" fill="#FFB6B6"/>
<path d="M248.127 30.0484C246.727 30.5683 244.58 31.3767 243.18 31.8966C241.874 29.3078 243.474 27.9645 243.64 25.0729C243.695 24.108 243.835 23.1419 243.755 22.1787C243.675 21.2155 243.342 20.2267 242.611 19.5894C241.493 18.6144 239.632 18.773 238.55 19.787C237.468 20.801 237.16 22.4765 237.602 23.8881C233.346 22.0584 230.596 17.2584 231.184 12.6845C229.913 12.189 228.61 11.6868 227.245 11.6489C225.881 11.611 224.418 12.1289 223.691 13.2779C223.181 14.0836 223.079 15.1064 222.507 15.8696C221.577 17.1096 219.568 17.2057 218.333 16.2651C217.098 15.3244 216.626 13.615 216.889 12.0905C217.152 10.5659 215.236 7.45471 216.309 6.3345C217.041 5.57032 220.673 6.65311 221.489 5.97899C222.234 5.36397 222.981 4.74692 223.802 4.2367C224.844 3.58905 225.998 3.12004 227.198 2.8565C228.333 2.60721 229.5 2.54173 230.661 2.47705C231.839 2.41138 233.469 0.0782567 234.647 0.0125857C238.116 -0.180753 241.216 1.90241 244.544 2.89419C247.873 3.88597 249.967 6.73399 251.809 9.66356C254.433 13.8365 253.541 18.4088 251.734 22.3989C251.287 23.3852 252.786 24.4217 252.564 25.4806C252.358 26.4649 251.431 27.1778 251.214 28.1599C251.029 28.9997 249.933 28.0268 249.671 28.8463C249.446 29.5535 248.781 30.0528 248.07 30.2785C247.359 30.5042 246.598 30.4996 245.852 30.4929" fill="#2F2E41"/>
<path d="M335.008 295.566C336.378 295.651 337.135 293.958 336.099 292.971L335.996 292.564C336.009 292.531 336.023 292.498 336.036 292.466C337.422 289.179 342.119 289.202 343.493 292.493C344.713 295.414 346.266 298.341 346.648 301.429C346.82 302.793 346.742 304.182 346.438 305.52C349.296 299.312 350.8 292.533 350.8 285.716C350.8 284.003 350.706 282.29 350.513 280.581C350.354 279.184 350.136 277.795 349.853 276.418C348.323 268.979 345.012 261.894 340.234 255.975C337.938 254.727 336.023 252.775 334.866 250.436C334.45 249.593 334.125 248.685 333.97 247.761C334.232 247.795 334.956 243.836 334.759 243.593C335.123 243.044 335.775 242.771 336.173 242.234C338.151 239.567 340.877 240.033 342.299 243.657C345.339 245.183 345.369 247.713 343.503 250.147C342.317 251.695 342.154 253.79 341.113 255.447C341.22 255.583 341.331 255.715 341.438 255.852C343.403 258.357 345.101 261.05 346.534 263.879C346.129 260.735 346.726 256.947 347.745 254.505C348.905 251.723 351.078 249.38 352.992 246.975C355.292 244.086 360.006 245.347 360.411 249.009C360.415 249.045 360.419 249.08 360.423 249.115C360.138 249.275 359.86 249.444 359.588 249.623C358.036 250.644 358.572 253.036 360.411 253.319L360.453 253.325C360.35 254.343 360.174 255.353 359.917 256.346C362.373 265.79 357.071 269.229 349.502 269.384C349.335 269.469 349.172 269.554 349.005 269.635C349.772 271.783 350.384 273.986 350.838 276.218C351.245 278.191 351.528 280.185 351.687 282.188C351.884 284.714 351.867 287.254 351.652 289.776L351.665 289.687C352.209 286.909 353.726 284.314 355.928 282.516C359.209 279.836 363.844 278.849 367.383 276.695C369.087 275.658 371.27 276.998 370.973 278.962L370.958 279.056C370.431 279.269 369.917 279.516 369.42 279.793C369.136 279.953 368.857 280.122 368.585 280.301C367.033 281.322 367.57 283.714 369.408 283.996L369.45 284.003C369.48 284.007 369.506 284.011 369.536 284.016C368.632 286.15 367.372 288.131 365.795 289.84C364.26 298.084 357.665 298.866 350.611 296.465H350.607C349.836 299.806 348.709 303.07 347.261 306.18H335.307C335.264 306.048 335.226 305.912 335.187 305.779C336.293 305.848 337.407 305.784 338.495 305.584C337.608 304.501 336.721 303.41 335.834 302.328C335.813 302.307 335.796 302.286 335.779 302.264C335.329 301.71 334.874 301.161 334.425 300.607L334.424 300.606C334.396 298.906 334.602 297.211 335.008 295.566Z" fill="#F2F2F2"/>
<path d="M128.341 306.215C128.341 306.65 128.693 307 129.131 307H370.118C370.555 307 370.907 306.65 370.907 306.215C370.907 305.779 370.555 305.43 370.118 305.43H129.131C128.693 305.43 128.341 305.779 128.341 306.215Z" fill="#CCCCCC"/>
<path d="M166.512 53.7445C167.912 54.6631 168.987 55.8201 169.641 57.0003L183.532 64.9141L179.552 71.3774L165.889 62.6537C164.541 62.52 163.049 61.9919 161.649 61.0732C158.451 58.9745 156.947 55.6327 158.29 53.6089C159.633 51.5851 163.314 51.6458 166.512 53.7445Z" fill="#FFB6B6"/>
<path d="M231.869 45.4026C240.728 39.9999 249.629 52.3722 241.753 59.1132L241.726 59.1361L210.255 88.572L172.592 70.0762L176.316 60.0897L205.496 71.5848L227.385 48.9869C228.909 47.4698 230.408 46.2939 231.869 45.4026Z" fill="#3A7D95"/>
<path d="M45.3033 94.5527C44.5716 94.5527 43.9766 95.1444 43.9766 95.8721V116.322C43.9766 117.05 44.5716 117.641 45.3033 117.641C46.0349 117.641 46.6299 117.05 46.6299 116.322V95.8721C46.6299 95.1444 46.0349 94.5527 45.3033 94.5527Z" fill="#82B4C9"/>
<path d="M58.3056 114.258C62.8715 114.258 66.573 110.655 66.573 106.21C66.573 101.765 62.8715 98.1611 58.3056 98.1611C53.7396 98.1611 50.0381 101.765 50.0381 106.21C50.0381 110.655 53.7396 114.258 58.3056 114.258Z" fill="#3A7D95"/>
<path d="M124.582 103.456H80.0817C78.5551 103.456 77.313 102.221 77.313 100.703C77.313 99.1845 78.5551 97.9492 80.0817 97.9492H124.582C126.109 97.9492 127.351 99.1845 127.351 100.703C127.351 102.221 126.109 103.456 124.582 103.456Z" fill="white"/>
<path d="M124.582 103.456H80.0817C78.5551 103.456 77.313 102.221 77.313 100.703C77.313 99.1845 78.5551 97.9492 80.0817 97.9492H124.582C126.109 97.9492 127.351 99.1845 127.351 100.703C127.351 102.221 126.109 103.456 124.582 103.456Z" fill="#3A7D95" fill-opacity="0.05"/>
<path d="M159.311 112.775H80.0817C78.5551 112.775 77.313 111.54 77.313 110.022C77.313 108.504 78.5551 107.269 80.0817 107.269H159.311C160.837 107.269 162.079 108.504 162.079 110.022C162.079 111.54 160.837 112.775 159.311 112.775Z" fill="white"/>
<path d="M159.311 112.775H80.0817C78.5551 112.775 77.313 111.54 77.313 110.022C77.313 108.504 78.5551 107.269 80.0817 107.269H159.311C160.837 107.269 162.079 108.504 162.079 110.022C162.079 111.54 160.837 112.775 159.311 112.775Z" fill="#3A7D95" fill-opacity="0.05"/>
<path d="M8.26747 157.784C12.8335 157.784 16.5349 154.18 16.5349 149.735C16.5349 145.29 12.8335 141.687 8.26747 141.687C3.70147 141.687 0 145.29 0 149.735C0 154.18 3.70147 157.784 8.26747 157.784Z" fill="#3A7D95"/>
<path d="M74.5442 146.981H30.0437C28.517 146.981 27.2749 145.746 27.2749 144.228C27.2749 142.71 28.517 141.475 30.0437 141.475H74.5442C76.0708 141.475 77.3129 142.71 77.3129 144.228C77.3129 145.746 76.0708 146.981 74.5442 146.981Z" fill="white"/>
<path d="M74.5442 146.981H30.0437C28.517 146.981 27.2749 145.746 27.2749 144.228C27.2749 142.71 28.517 141.475 30.0437 141.475H74.5442C76.0708 141.475 77.3129 142.71 77.3129 144.228C77.3129 145.746 76.0708 146.981 74.5442 146.981Z" fill="#3A7D95" fill-opacity="0.05"/>
<path d="M85.9174 184.177C90.4834 184.177 94.1848 180.574 94.1848 176.129C94.1848 171.684 90.4834 168.08 85.9174 168.08C81.3514 168.08 77.6499 171.684 77.6499 176.129C77.6499 180.574 81.3514 184.177 85.9174 184.177Z" fill="#3A7D95"/>
<path d="M186.922 182.694H107.694C106.167 182.694 104.925 181.459 104.925 179.941C104.925 178.423 106.167 177.188 107.694 177.188H186.922C188.449 177.188 189.691 178.423 189.691 179.941C189.691 181.459 188.449 182.694 186.922 182.694Z" fill="white"/>
<path d="M186.922 182.694H107.694C106.167 182.694 104.925 181.459 104.925 179.941C104.925 178.423 106.167 177.188 107.694 177.188H186.922C188.449 177.188 189.691 178.423 189.691 179.941C189.691 181.459 188.449 182.694 186.922 182.694Z" fill="#3A7D95" fill-opacity="0.05"/>
<path d="M167.349 33.684C171.915 33.684 175.616 30.0805 175.616 25.6354C175.616 21.1904 171.915 17.5869 167.349 17.5869C162.783 17.5869 159.081 21.1904 159.081 25.6354C159.081 30.0805 162.783 33.684 167.349 33.684Z" fill="#3A7D95"/>
<path d="M319.528 168.613C324.094 168.613 327.795 165.009 327.795 160.564C327.795 156.119 324.094 152.516 319.528 152.516C314.962 152.516 311.26 156.119 311.26 160.564C311.26 165.009 314.962 168.613 319.528 168.613Z" fill="#3A7D95"/>
</g>
<defs>
<clipPath id="clip0_865_8049">
<rect width="371" height="307" fill="white"/>
</clipPath>
</defs>
</svg>
