<svg width="206" height="50" viewBox="0 0 206 50" fill="none" xmlns="http://www.w3.org/2000/svg">
<path d="M84.5582 21.0322C84.5582 21.3754 84.5067 21.6914 84.4037 21.9801C84.3051 22.2605 84.1485 22.5167 83.9441 22.7318C83.7403 22.9445 83.4865 23.1108 83.1828 23.2306C82.8789 23.3501 82.529 23.4099 82.1331 23.4102C81.7315 23.4102 81.3788 23.3503 81.0751 23.2306C80.7711 23.1108 80.5176 22.9445 80.3144 22.7318C80.1091 22.5174 79.9522 22.261 79.8546 21.9801C79.7513 21.6914 79.6997 21.3754 79.6997 21.0322V17.4778H80.9694V20.9832C80.9694 21.1631 80.9979 21.3294 81.0548 21.482C81.1117 21.6341 81.1917 21.7661 81.2947 21.878C81.3988 21.9902 81.5251 22.0793 81.6656 22.1396C81.8084 22.2023 81.9653 22.2337 82.1331 22.2337C82.3012 22.2337 82.4559 22.2023 82.597 22.1396C82.7381 22.0769 82.8601 21.9897 82.9632 21.878C83.0662 21.7661 83.1461 21.6341 83.2031 21.482C83.26 21.3294 83.2886 21.1631 83.2888 20.9832V17.4778H84.5582V21.0322Z" fill="white"/>
<path d="M85.4707 22.5608C85.4696 22.3609 85.5468 22.1687 85.6857 22.0256C85.7537 21.9577 85.834 21.9047 85.9266 21.8664C86.0183 21.8282 86.1159 21.809 86.2194 21.809C86.322 21.809 86.4196 21.8282 86.5125 21.8664C86.6042 21.9049 86.684 21.958 86.752 22.0256C86.8203 22.0941 86.8732 22.1745 86.9109 22.2668C86.9489 22.3601 86.9682 22.46 86.9677 22.5608C86.9677 22.6646 86.9488 22.7626 86.9109 22.8547C86.8745 22.9449 86.8206 23.0268 86.7521 23.0956C86.6837 23.1645 86.6022 23.2188 86.5125 23.2554C86.4195 23.2936 86.3199 23.313 86.2194 23.3125C86.1159 23.3125 86.0183 23.2935 85.9266 23.2554C85.834 23.2176 85.7537 23.1645 85.6857 23.0959C85.5465 22.9531 85.4692 22.7607 85.4707 22.5608Z" fill="white"/>
<path d="M91.7773 18.8914C91.6741 18.7608 91.5343 18.6641 91.3579 18.6011C91.1976 18.542 91.0286 18.5104 90.8578 18.5074C90.7619 18.508 90.6663 18.5191 90.5727 18.5404C90.4763 18.5617 90.3832 18.5959 90.2959 18.6422C90.212 18.6859 90.1395 18.749 90.0846 18.8263C90.0288 18.9079 90.0001 19.0051 90.0028 19.1039C90.0028 19.2786 90.068 19.4119 90.1982 19.504C90.3285 19.597 90.4926 19.6761 90.6907 19.7412C90.9022 19.811 91.1152 19.8764 91.3294 19.9374C91.5535 20.0016 91.7682 20.095 91.968 20.2154C92.1666 20.3363 92.3351 20.501 92.4608 20.6972C92.5909 20.8987 92.6559 21.1684 92.6559 21.5063C92.6557 21.8277 92.596 22.1082 92.4768 22.3477C92.3628 22.5811 92.197 22.7852 91.9923 22.9443C91.7811 23.1062 91.5408 23.2255 91.2845 23.2957C91.0077 23.3733 90.7215 23.4118 90.4342 23.4101C90.0596 23.4101 89.7124 23.3529 89.3928 23.2386C89.0726 23.1238 88.7742 22.9385 88.4976 22.6827L89.4007 21.6861C89.5294 21.8593 89.6984 21.9981 89.8929 22.0905C90.0842 22.1847 90.2945 22.2337 90.5076 22.2336C90.6102 22.2336 90.7146 22.2213 90.821 22.1966C90.9264 22.1721 91.0211 22.1354 91.1051 22.0865C91.1892 22.0376 91.2573 21.9749 91.3091 21.8986C91.3605 21.8221 91.3862 21.7323 91.3862 21.629C91.3862 21.4547 91.3197 21.3171 91.1868 21.2163C91.0539 21.1156 90.8871 21.0297 90.6864 20.9587C90.4854 20.888 90.2686 20.8173 90.0357 20.7465C89.8078 20.6782 89.5889 20.5822 89.3841 20.4606C89.1844 20.3418 89.0136 20.1799 88.884 19.9865C88.7511 19.7903 88.6846 19.5315 88.6846 19.2101C88.6846 18.9 88.7457 18.6277 88.8677 18.3933C88.9896 18.159 89.1523 17.963 89.3559 17.805C89.5664 17.6435 89.8051 17.5229 90.0597 17.4494C90.3265 17.3704 90.6033 17.3305 90.8814 17.3309C91.2071 17.3309 91.522 17.3773 91.8261 17.47C92.1305 17.5631 92.4109 17.722 92.6476 17.9355L91.7773 18.8914Z" fill="white"/>
<path d="M93.519 22.5608C93.519 22.4576 93.538 22.3596 93.5759 22.2668C93.614 22.1743 93.6669 22.0939 93.7347 22.0256C93.8025 21.9577 93.8826 21.9047 93.9749 21.8664C94.0673 21.8282 94.1649 21.809 94.2677 21.809C94.3705 21.809 94.4683 21.8282 94.5611 21.8664C94.6528 21.9049 94.7327 21.958 94.8007 22.0256C94.8687 22.0941 94.9218 22.1745 94.9599 22.2668C94.9973 22.3596 95.0161 22.4576 95.0164 22.5608C95.0161 22.6646 94.9973 22.7626 94.9599 22.8547C94.9236 22.945 94.8697 23.027 94.8011 23.0959C94.7326 23.1647 94.651 23.219 94.5611 23.2554C94.468 23.2937 94.3683 23.313 94.2677 23.3125C94.1673 23.313 94.0679 23.2936 93.9749 23.2554C93.885 23.219 93.8033 23.1648 93.7347 23.0959C93.6662 23.0271 93.6121 22.945 93.5759 22.8547C93.5382 22.7626 93.5193 22.6646 93.519 22.5608Z" fill="white"/>
<path d="M103.699 18.9816C103.575 18.8298 103.418 18.7094 103.239 18.6299C103.058 18.5485 102.847 18.5077 102.608 18.5074C102.37 18.5074 102.149 18.5538 101.945 18.6466C101.744 18.7378 101.564 18.8699 101.416 19.0346C101.263 19.2076 101.144 19.4087 101.066 19.6268C100.981 19.8653 100.938 20.1171 100.94 20.3706C100.94 20.643 100.982 20.8923 101.066 21.1183C101.145 21.3341 101.262 21.5335 101.412 21.7065C101.556 21.8706 101.732 22.0027 101.929 22.0946C102.129 22.1877 102.348 22.2352 102.568 22.2337C102.828 22.2337 103.059 22.1792 103.26 22.0702C103.461 21.9617 103.631 21.8043 103.756 21.6124L104.814 22.4052C104.58 22.7396 104.259 23.0027 103.886 23.1653C103.522 23.3268 103.129 23.4102 102.731 23.4102C102.28 23.4102 101.865 23.3393 101.486 23.1976C101.12 23.0642 100.785 22.857 100.501 22.5887C100.225 22.3249 100.009 22.005 99.8537 21.6291C99.6993 21.2532 99.6221 20.8337 99.6221 20.3706C99.6221 19.9079 99.6993 19.4884 99.8537 19.112C99.9996 18.7499 100.22 18.4229 100.501 18.1524C100.785 17.8842 101.12 17.6769 101.486 17.5435C101.865 17.4018 102.28 17.331 102.731 17.331C102.894 17.331 103.063 17.346 103.239 17.376C103.417 17.4065 103.592 17.4544 103.76 17.5191C103.934 17.5859 104.1 17.6738 104.253 17.7807C104.412 17.8923 104.555 18.0271 104.675 18.1808L103.699 18.9816Z" fill="white"/>
<path d="M106.432 17.4784H110.346V18.6549H107.701V19.7339H110.2V20.9101H107.701V22.0872H110.493V23.2637H106.432V17.4784Z" fill="white"/>
<path d="M112.471 17.4784H114.197L116.645 21.4983H116.662V17.4784H117.932V23.2637H116.272L113.757 19.1457H113.741V23.2637H112.471V17.4784Z" fill="white"/>
<path d="M121.058 18.6058H119.415V17.4784H123.972V18.6058H122.328V23.2637H121.058V18.6058Z" fill="white"/>
<path d="M125.484 17.4784H129.398V18.6549H126.754V19.7339H129.252V20.9101H126.754V22.0872H129.545V23.2637H125.484V17.4784Z" fill="white"/>
<path d="M132.712 19.8731H133.46C133.574 19.8728 133.695 19.8686 133.822 19.8604C133.95 19.8526 134.066 19.8281 134.169 19.787C134.272 19.7461 134.357 19.682 134.425 19.5948C134.493 19.5076 134.526 19.3852 134.526 19.2274C134.526 19.0806 134.497 18.9635 134.437 18.8761C134.38 18.7908 134.301 18.7217 134.209 18.6756C134.109 18.6272 134.002 18.5954 133.892 18.5815C133.776 18.5656 133.659 18.5575 133.542 18.5571H132.712V19.8731ZM131.442 17.4788H133.672C133.965 17.4788 134.243 17.5075 134.506 17.5648C134.752 17.6152 134.987 17.712 135.198 17.8501C135.398 17.9871 135.561 18.1728 135.669 18.39C135.786 18.616 135.845 18.8977 135.845 19.2351C135.845 19.6437 135.739 19.9911 135.528 20.2771C135.316 20.5634 135.007 20.7447 134.6 20.821L136.065 23.2637H134.543L133.339 20.9514H132.712V23.2637H131.442V17.4788Z" fill="white"/>
<path d="M140.49 18.8914C140.387 18.7609 140.247 18.6641 140.071 18.6012C139.91 18.542 139.741 18.5103 139.57 18.5074C139.474 18.508 139.379 18.5191 139.285 18.5404C139.189 18.5617 139.096 18.5959 139.009 18.6422C138.925 18.6859 138.852 18.749 138.797 18.8264C138.742 18.908 138.713 19.0052 138.716 19.104C138.716 19.2786 138.781 19.4119 138.911 19.504C139.042 19.597 139.206 19.6761 139.403 19.7413C139.615 19.8109 139.828 19.8764 140.043 19.9374C140.267 20.0016 140.481 20.095 140.681 20.2154C140.88 20.3359 141.048 20.5008 141.173 20.6972C141.304 20.8987 141.369 21.1684 141.368 21.5063C141.369 21.8277 141.309 22.1082 141.19 22.3478C141.076 22.5811 140.91 22.7852 140.706 22.9443C140.494 23.1062 140.254 23.2255 139.998 23.2957C139.721 23.3729 139.435 23.4114 139.147 23.4101C138.773 23.4101 138.426 23.353 138.106 23.2386C137.786 23.1238 137.487 22.9386 137.21 22.6828L138.114 21.6861C138.242 21.8594 138.412 21.9982 138.606 22.0905C138.894 22.2333 139.222 22.2708 139.534 22.1966C139.64 22.1722 139.735 22.1355 139.819 22.0865C139.903 22.0376 139.971 21.975 140.022 21.8987C140.073 21.8221 140.099 21.7323 140.099 21.6291C140.099 21.4547 140.033 21.3171 139.9 21.2163C139.767 21.1156 139.6 21.0297 139.4 20.9588C139.199 20.888 138.982 20.8173 138.748 20.7466C138.515 20.6756 138.298 20.5803 138.098 20.4606C137.898 20.3419 137.727 20.1799 137.597 19.9865C137.464 19.7903 137.397 19.5315 137.397 19.2101C137.397 18.9 137.458 18.6277 137.581 18.3933C137.699 18.1637 137.866 17.9629 138.069 17.8051C138.28 17.6435 138.519 17.5229 138.773 17.4494C139.04 17.3704 139.317 17.3305 139.595 17.3309C139.921 17.3309 140.235 17.3773 140.539 17.4701C140.843 17.5625 141.124 17.7215 141.36 17.9355L140.49 18.8914Z" fill="white"/>
<path d="M146.235 17.4784H150.1V18.6549H147.505V19.8317H149.905V21.0082H147.505V23.2637H146.235V17.4784Z" fill="white"/>
<path d="M152.625 20.3706C152.625 20.643 152.667 20.8923 152.751 21.1183C152.83 21.3372 152.954 21.5374 153.113 21.7065C153.272 21.8747 153.465 22.007 153.679 22.0946C153.899 22.1875 154.144 22.2339 154.416 22.2337C154.687 22.2337 154.932 22.1873 155.152 22.0946C155.366 22.007 155.559 21.8747 155.718 21.7065C155.877 21.5373 156 21.3371 156.079 21.1183C156.164 20.8923 156.206 20.643 156.206 20.3706C156.206 20.1036 156.164 19.8557 156.079 19.6268C156.001 19.4066 155.878 19.205 155.718 19.0346C155.558 18.8671 155.365 18.735 155.152 18.6466C154.932 18.554 154.687 18.5077 154.416 18.5074C154.144 18.5074 153.899 18.5538 153.679 18.6466C153.466 18.735 153.273 18.8672 153.113 19.0346C152.953 19.2049 152.83 19.4065 152.751 19.6268C152.666 19.8653 152.623 20.1171 152.625 20.3706ZM151.307 20.3706C151.307 19.9079 151.384 19.4884 151.539 19.112C151.684 18.7499 151.905 18.4229 152.185 18.1524C152.469 17.8841 152.804 17.6769 153.171 17.5435C153.55 17.4018 153.965 17.331 154.416 17.331C154.866 17.331 155.28 17.4018 155.66 17.5435C156.027 17.6769 156.362 17.8842 156.645 18.1524C156.926 18.4229 157.146 18.7499 157.292 19.112C157.447 19.4884 157.524 19.9079 157.524 20.3706C157.524 20.8337 157.447 21.2532 157.292 21.6291C157.137 22.005 156.922 22.3249 156.645 22.5887C156.362 22.857 156.027 23.0642 155.66 23.1976C155.28 23.3393 154.866 23.4102 154.416 23.4102C153.965 23.4102 153.55 23.3393 153.171 23.1976C152.804 23.0643 152.469 22.857 152.185 22.5887C151.909 22.3249 151.694 22.005 151.539 21.6291C151.384 21.2532 151.306 20.8337 151.307 20.3706Z" fill="white"/>
<path d="M160.141 19.8731H160.89C161.004 19.8728 161.124 19.8686 161.251 19.8604C161.379 19.8526 161.495 19.8281 161.598 19.787C161.701 19.7461 161.786 19.682 161.854 19.5948C161.922 19.5076 161.956 19.3852 161.956 19.2274C161.956 19.0806 161.926 18.9635 161.866 18.8761C161.809 18.7907 161.73 18.7217 161.638 18.6756C161.538 18.6273 161.431 18.5955 161.321 18.5815C161.205 18.5656 161.088 18.5575 160.971 18.5571H160.141V19.8731ZM158.872 17.4788H161.101C161.394 17.4788 161.672 17.5075 161.936 17.5648C162.198 17.6218 162.429 17.7169 162.627 17.8501C162.827 17.9869 162.99 18.1727 163.099 18.39C163.216 18.616 163.274 18.8977 163.274 19.2351C163.274 19.6437 163.168 19.9911 162.957 20.2771C162.745 20.5634 162.436 20.7447 162.029 20.821L163.494 23.2637H161.972L160.767 20.9514H160.141V23.2637H158.872V17.4788Z" fill="white"/>
<path d="M169.288 22.0872H169.947C170.24 22.0872 170.512 22.0571 170.765 21.9971C171.017 21.937 171.235 21.8377 171.42 21.6991C171.604 21.5601 171.749 21.3775 171.855 21.1512C171.961 20.9253 172.014 20.6489 172.014 20.3221C172.014 20.039 171.961 19.7925 171.855 19.5827C171.754 19.3791 171.608 19.2015 171.428 19.0636C171.238 18.923 171.024 18.8191 170.797 18.7573C170.549 18.6881 170.293 18.6537 170.036 18.6548H169.288V22.0872ZM168.018 17.4784H169.922C170.383 17.4784 170.821 17.5301 171.236 17.6335C171.651 17.7372 172.013 17.9047 172.323 18.136C172.632 18.3676 172.878 18.6685 173.059 19.0389C173.241 19.4092 173.332 19.8588 173.332 20.3875C173.332 20.856 173.244 21.2686 173.068 21.6254C172.898 21.9734 172.655 22.2801 172.355 22.5242C172.048 22.7717 171.698 22.9587 171.322 23.0754C170.925 23.2023 170.51 23.2658 170.093 23.2636H168.018V17.4784Z" fill="white"/>
<path d="M174.908 17.4784H176.178V23.2637H174.908V17.4784Z" fill="white"/>
<path d="M181.329 18.8914C181.226 18.7608 181.086 18.6641 180.91 18.6011C180.749 18.542 180.58 18.5104 180.41 18.5074C180.317 18.5074 180.222 18.5184 180.124 18.5404C180.028 18.5617 179.935 18.5959 179.848 18.6422C179.764 18.6859 179.691 18.749 179.636 18.8263C179.582 18.9026 179.555 18.9952 179.555 19.1039C179.555 19.2786 179.62 19.4119 179.75 19.504C179.88 19.597 180.044 19.6761 180.242 19.7412C180.454 19.8109 180.667 19.8763 180.881 19.9374C181.105 20.0015 181.32 20.0949 181.52 20.2154C181.719 20.3364 181.887 20.5011 182.013 20.6972C182.143 20.8987 182.208 21.1684 182.208 21.5063C182.208 21.8277 182.148 22.1082 182.029 22.3477C181.915 22.5811 181.749 22.7852 181.545 22.9443C181.333 23.1062 181.093 23.2255 180.836 23.2957C180.559 23.3733 180.273 23.4118 179.986 23.4101C179.612 23.4101 179.265 23.3529 178.945 23.2386C178.624 23.1238 178.326 22.9385 178.049 22.6827L178.953 21.6861C179.081 21.8593 179.25 21.9981 179.445 22.0905C179.732 22.2332 180.061 22.2707 180.373 22.1966C180.479 22.1721 180.574 22.1354 180.657 22.0865C180.742 22.0376 180.809 21.9749 180.861 21.8986C180.912 21.8221 180.938 21.7323 180.939 21.629C180.939 21.4547 180.872 21.3171 180.739 21.2163C180.606 21.1156 180.439 21.0297 180.238 20.9587C180.023 20.8832 179.806 20.8125 179.588 20.7465C179.36 20.6781 179.141 20.5821 178.937 20.4606C178.737 20.3419 178.566 20.1799 178.436 19.9865C178.303 19.7903 178.236 19.5315 178.236 19.2101C178.236 18.9 178.298 18.6277 178.42 18.3933C178.542 18.159 178.704 17.963 178.908 17.805C179.119 17.6435 179.357 17.5228 179.612 17.4494C179.879 17.3704 180.156 17.3305 180.434 17.3309C180.754 17.33 181.072 17.3769 181.378 17.47C181.683 17.5625 181.963 17.7214 182.2 17.9355L181.329 18.8914Z" fill="white"/>
<path d="M183.946 17.4784H187.86V18.6549H185.215V19.7339H187.714V20.9101H185.215V22.0872H188.007V23.2637H183.946V17.4784Z" fill="white"/>
<path d="M192.154 19.1617L191.454 20.9595H192.861L192.154 19.1617ZM191.665 17.4788H192.715L195.221 23.2637H193.789L193.293 22.0385H191.055L190.575 23.2637H189.175L191.665 17.4788Z" fill="white"/>
<path d="M199.322 18.8914C199.219 18.7608 199.079 18.6641 198.903 18.6011C198.743 18.542 198.574 18.5104 198.403 18.5074C198.31 18.5074 198.215 18.5184 198.118 18.5404C198.021 18.5617 197.928 18.5959 197.841 18.6422C197.757 18.6859 197.685 18.749 197.63 18.8263C197.575 18.9026 197.548 18.9952 197.548 19.1039C197.548 19.2786 197.613 19.4119 197.743 19.504C197.874 19.597 198.038 19.6761 198.236 19.7412C198.447 19.8109 198.66 19.8763 198.874 19.9374C199.099 20.0015 199.314 20.0949 199.514 20.2154C199.712 20.3364 199.88 20.5011 200.006 20.6972C200.136 20.8987 200.201 21.1684 200.201 21.5063C200.201 21.8277 200.141 22.1082 200.022 22.3477C199.908 22.5811 199.743 22.7852 199.538 22.9443C199.327 23.1062 199.086 23.2255 198.829 23.2957C198.553 23.3733 198.266 23.4118 197.979 23.4101C197.605 23.4101 197.258 23.3529 196.938 23.2386C196.618 23.1238 196.319 22.9385 196.042 22.6827L196.946 21.6861C197.075 21.8593 197.244 21.9981 197.438 22.0905C197.726 22.2332 198.054 22.2707 198.366 22.1966C198.472 22.1721 198.567 22.1354 198.651 22.0865C198.735 22.0376 198.803 21.9749 198.854 21.8986C198.906 21.8221 198.932 21.7323 198.932 21.629C198.932 21.4547 198.865 21.3171 198.732 21.2163C198.599 21.1156 198.432 21.0297 198.232 20.9587C198.031 20.888 197.814 20.8173 197.581 20.7465C197.353 20.6781 197.134 20.5821 196.93 20.4606C196.73 20.3419 196.559 20.1799 196.429 19.9865C196.296 19.7903 196.23 19.5315 196.23 19.2101C196.23 18.9 196.291 18.6277 196.413 18.3933C196.535 18.159 196.698 17.963 196.901 17.805C197.112 17.6435 197.351 17.5228 197.605 17.4494C197.872 17.3704 198.149 17.3305 198.427 17.3309C198.747 17.33 199.065 17.3769 199.371 17.47C199.676 17.5625 199.956 17.7214 200.193 17.9355L199.322 18.8914Z" fill="white"/>
<path d="M201.939 17.4784H205.853V18.6549H203.209V19.7339H205.707V20.9101H203.209V22.0872H206V23.2637H201.939V17.4784Z" fill="white"/>
<path d="M83.4679 28.378C83.3441 28.2263 83.1865 28.1059 83.008 28.0264C82.8261 27.945 82.6159 27.9041 82.3773 27.9039C82.1385 27.9039 81.9175 27.9503 81.7144 28.043C81.5132 28.1342 81.333 28.2664 81.1853 28.4311C81.0318 28.6041 80.9128 28.8051 80.8351 29.0233C80.7495 29.2618 80.7069 29.5136 80.7092 29.767C80.7092 30.0395 80.7511 30.2888 80.8351 30.5148C80.9193 30.741 81.0345 30.9371 81.1807 31.103C81.3241 31.2671 81.5001 31.3992 81.6974 31.491C81.8976 31.5842 82.1158 31.6317 82.3364 31.6302C82.5971 31.6302 82.8276 31.5757 83.0279 31.4667C83.2291 31.3583 83.3999 31.2009 83.5247 31.0089L84.5827 31.8017C84.3489 32.136 84.0278 32.399 83.6546 32.5617C83.2908 32.7232 82.8974 32.8066 82.4996 32.8066C82.049 32.8066 81.634 32.7358 81.2548 32.5941C80.8883 32.4607 80.5529 32.2535 80.2692 31.9852C79.9934 31.7214 79.7779 31.4015 79.6226 31.0256C79.4679 30.6497 79.3906 30.2302 79.3906 29.767C79.3906 29.3044 79.4679 28.8849 79.6226 28.5085C79.7683 28.1463 79.9886 27.8192 80.2692 27.5486C80.553 27.2804 80.8884 27.0732 81.2548 26.94C81.6343 26.7983 82.0492 26.7274 82.4996 26.7274C82.6622 26.7274 82.8316 26.7425 83.008 26.7725C83.1858 26.8028 83.3603 26.8507 83.5287 26.9156C83.7031 26.9821 83.8686 27.0699 84.0215 27.1772C84.1811 27.2891 84.3235 27.4239 84.4441 27.5773L83.4679 28.378Z" fill="white"/>
<path d="M86.5868 29.767C86.5868 30.0395 86.6287 30.2888 86.7127 30.5148C86.7921 30.7337 86.9153 30.9339 87.0749 31.103C87.2339 31.2711 87.4267 31.4034 87.6405 31.491C87.8602 31.584 88.1058 31.6304 88.3772 31.6302C88.6483 31.6302 88.8937 31.5838 89.1132 31.491C89.3267 31.4026 89.5196 31.2705 89.6794 31.103C89.8381 30.9333 89.9612 30.7332 90.0413 30.5148C90.1275 30.2751 90.1702 30.0219 90.1676 29.767C90.1676 29.5001 90.1255 29.2522 90.0413 29.0233C89.9617 28.8034 89.8386 28.602 89.6794 28.4311C89.5196 28.2636 89.3267 28.1315 89.1132 28.043C88.8937 27.9505 88.6483 27.9041 88.3772 27.9039C88.1058 27.9039 87.8602 27.9503 87.6405 28.043C87.4271 28.1315 87.2345 28.2637 87.0749 28.4311C86.9149 28.6014 86.7916 28.803 86.7127 29.0233C86.6271 29.2618 86.5845 29.5136 86.5868 29.767ZM85.2686 29.767C85.2686 29.3044 85.3458 28.8849 85.5002 28.5085C85.6457 28.1461 85.8663 27.819 86.1475 27.5489C86.4308 27.2807 86.7658 27.0735 87.1317 26.94C87.5112 26.7983 87.9263 26.7274 88.3772 26.7274C88.8271 26.7274 89.242 26.7983 89.6219 26.94C89.9881 27.0734 90.3233 27.2806 90.6068 27.5489C90.8835 27.8129 91.0992 28.1328 91.2538 28.5085C91.4082 28.8849 91.4854 29.3044 91.4854 29.767C91.4854 30.2302 91.4082 30.6497 91.2538 31.0256C91.0992 31.4015 90.8835 31.7214 90.6068 31.9852C90.3233 32.2534 89.9881 32.4607 89.6219 32.5941C89.242 32.7358 88.8271 32.8066 88.3772 32.8066C87.9266 32.8066 87.5114 32.7358 87.1317 32.5941C86.7658 32.4606 86.4308 32.2534 86.1475 31.9852C85.8706 31.7214 85.6548 31.4015 85.5002 31.0256C85.3458 30.6497 85.2686 30.2302 85.2686 29.767Z" fill="white"/>
<path d="M92.8657 26.8749H94.5907L97.0407 30.8948H97.0566V26.8749H98.326V32.6602H96.6662L94.1514 28.5422H94.1354V32.6602H92.8657V26.8749Z" fill="white"/>
<path d="M101.079 28.0023H99.4351V26.8749H103.992V28.0023H102.348V32.6602H101.079V28.0023Z" fill="white"/>
<path d="M106.375 29.2696H107.123C107.238 29.2693 107.358 29.2651 107.486 29.2569C107.613 29.2491 107.728 29.2246 107.831 29.1835C107.935 29.1425 108.02 29.0785 108.088 28.9913C108.156 28.9041 108.189 28.7816 108.189 28.6239C108.189 28.4771 108.16 28.36 108.1 28.2726C108.04 28.1856 107.964 28.1188 107.872 28.0721C107.772 28.0237 107.665 27.992 107.555 27.978C107.435 27.9617 107.319 27.9536 107.205 27.9536H106.375V29.2696ZM105.105 26.8752H107.335C107.628 26.8752 107.906 26.9039 108.169 26.9613C108.432 27.0183 108.663 27.1134 108.861 27.2466C109.061 27.3835 109.224 27.5692 109.333 27.7865C109.45 28.0125 109.508 28.2942 109.508 28.6316C109.508 29.0402 109.402 29.3876 109.19 29.6736C108.979 29.9599 108.67 30.1412 108.263 30.2175L109.727 32.6602H108.206L107.002 30.3479H106.375V32.6602H105.105V26.8752Z" fill="white"/>
<path d="M111.825 29.767C111.825 30.0395 111.867 30.2888 111.951 30.5148C112.03 30.7337 112.154 30.9339 112.313 31.103C112.473 31.2704 112.666 31.4026 112.879 31.491C113.099 31.584 113.344 31.6304 113.615 31.6302C113.886 31.6302 114.132 31.5838 114.352 31.491C114.566 31.403 114.758 31.2708 114.918 31.103C115.077 30.9339 115.2 30.7336 115.28 30.5148C115.366 30.2751 115.409 30.0219 115.406 29.767C115.406 29.5001 115.364 29.2522 115.28 29.0233C115.201 28.803 115.078 28.6014 114.918 28.4311C114.758 28.2637 114.565 28.1315 114.352 28.043C114.132 27.9505 113.886 27.9041 113.615 27.9039C113.344 27.9039 113.099 27.9503 112.879 28.043C112.666 28.1315 112.473 28.2637 112.313 28.4311C112.153 28.6014 112.03 28.803 111.951 29.0233C111.865 29.2618 111.823 29.5136 111.825 29.767ZM110.507 29.767C110.507 29.3044 110.584 28.8849 110.738 28.5085C110.884 28.1464 111.105 27.8193 111.386 27.5489C111.669 27.2806 112.004 27.0734 112.371 26.94C112.75 26.7983 113.165 26.7274 113.615 26.7274C114.066 26.7274 114.481 26.7983 114.861 26.94C115.227 27.0735 115.562 27.2807 115.845 27.5489C116.126 27.819 116.347 28.1462 116.492 28.5085C116.647 28.8849 116.724 29.3044 116.724 29.767C116.724 30.2302 116.647 30.6497 116.492 31.0256C116.347 31.3882 116.127 31.7154 115.845 31.9852C115.562 32.2534 115.227 32.4606 114.861 32.5941C114.481 32.7358 114.066 32.8066 113.615 32.8066C113.165 32.8066 112.75 32.7358 112.371 32.5941C112.004 32.4607 111.669 32.2534 111.386 31.9852C111.109 31.7214 110.894 31.4015 110.738 31.0256C110.584 30.6497 110.507 30.2302 110.507 29.767Z" fill="white"/>
<path d="M118.128 26.8749H119.398V31.4837H121.75V32.6602H118.128V26.8749Z" fill="white"/>
<path d="M128.707 28.5582L128.008 30.3559H129.415L128.707 28.5582ZM128.219 26.8752H129.269L131.775 32.6602H130.343L129.846 31.435H127.609L127.129 32.6602H125.729L128.219 26.8752Z" fill="white"/>
<path d="M132.661 26.8749H134.386L136.835 30.8948H136.851V26.8749H138.121V32.6602H136.461L133.947 28.5422H133.93V32.6602H132.661V26.8749Z" fill="white"/>
<path d="M141.083 31.4836H141.742C142.035 31.4836 142.308 31.4536 142.56 31.3935C142.813 31.3335 143.031 31.2342 143.215 31.0956C143.403 30.9519 143.553 30.7637 143.65 30.5477C143.756 30.3217 143.809 30.0454 143.81 29.7186C143.809 29.4354 143.756 29.189 143.65 28.9792C143.55 28.7753 143.404 28.5976 143.224 28.4601C143.034 28.3194 142.82 28.2155 142.592 28.1538C142.345 28.0846 142.089 28.0501 141.832 28.0513H141.083V31.4836ZM139.813 26.8749H141.718C142.179 26.8749 142.617 26.9266 143.032 27.03C143.448 27.1337 143.81 27.3012 144.118 27.5325C144.428 27.764 144.673 28.065 144.855 28.4354C145.037 28.8057 145.128 29.2553 145.128 29.784C145.128 30.2524 145.039 30.6651 144.863 31.0219C144.694 31.3701 144.451 31.677 144.151 31.9207C143.844 32.1676 143.493 32.3545 143.117 32.4719C142.72 32.5988 142.306 32.6623 141.889 32.6601H139.813V26.8749Z" fill="white"/>
<path d="M151.133 29.3263H151.979C152.093 29.3263 152.203 29.3155 152.309 29.2939C152.414 29.2717 152.509 29.2347 152.593 29.1831C152.677 29.1315 152.745 29.0607 152.797 28.9706C152.848 28.881 152.874 28.768 152.875 28.6316C152.875 28.4844 152.84 28.3659 152.772 28.2763C152.704 28.1863 152.615 28.1146 152.512 28.0677C152.4 28.0172 152.28 27.9854 152.158 27.9736C152.034 27.961 151.909 27.9542 151.784 27.9533H151.133V29.3263ZM149.863 26.8749H152.004C152.302 26.8749 152.584 26.9021 152.85 26.9563C153.115 27.011 153.347 27.1051 153.545 27.2386C153.746 27.3752 153.908 27.5608 154.018 27.7778C154.134 28.0038 154.192 28.2884 154.192 28.6316C154.192 28.9697 154.138 29.253 154.03 29.4814C153.921 29.7103 153.772 29.8928 153.582 30.029C153.392 30.1651 153.167 30.2618 152.907 30.3192C152.628 30.3779 152.345 30.4066 152.06 30.4046H151.133V32.6602H149.863V26.8749Z" fill="white"/>
<path d="M156.653 29.2696H157.401C157.515 29.2693 157.636 29.2651 157.763 29.2569C157.891 29.2491 158.006 29.2246 158.109 29.1835C158.212 29.1425 158.298 29.0785 158.365 28.9913C158.433 28.9041 158.467 28.7816 158.467 28.6239C158.467 28.4771 158.437 28.36 158.377 28.2726C158.32 28.1872 158.241 28.1182 158.149 28.0721C158.049 28.0237 157.942 27.992 157.832 27.978C157.716 27.9621 157.599 27.954 157.482 27.9536H156.653V29.2696ZM155.383 26.8752H157.613C157.905 26.8752 158.183 26.9039 158.447 26.9613C158.71 27.0183 158.94 27.1134 159.138 27.2466C159.339 27.3834 159.501 27.5692 159.611 27.7865C159.727 28.0125 159.785 28.2942 159.785 28.6316C159.785 29.0402 159.68 29.3876 159.468 29.6736C159.256 29.9599 158.947 30.1412 158.541 30.2175L160.005 32.6602H158.483L157.279 30.3479H156.653V32.6602H155.383V26.8752Z" fill="white"/>
<path d="M161.231 26.8749H165.146V28.0514H162.501V29.1304H164.999V30.3066H162.501V31.4837H165.292V32.6602H161.231V26.8749Z" fill="white"/>
<path d="M165.955 26.8749H167.403L168.827 30.6662H168.843L170.292 26.8749H171.651L169.275 32.6602H168.257L165.955 26.8749Z" fill="white"/>
<path d="M172.487 26.8749H176.402V28.0514H173.757V29.1304H176.255V30.3066H173.757V31.4837H176.548V32.6602H172.487V26.8749Z" fill="white"/>
<path d="M178.071 26.8749H179.796L182.246 30.8948H182.262V26.8749H183.532V32.6602H181.872L179.357 28.5422H179.341V32.6602H178.071V26.8749Z" fill="white"/>
<path d="M186.284 28.0023H184.641V26.8749H189.198V28.0023H187.554V32.6602H186.284V28.0023Z" fill="white"/>
<path d="M190.515 26.8749H191.784V32.6602H190.515V26.8749Z" fill="white"/>
<path d="M194.372 29.767C194.372 30.0395 194.414 30.2888 194.498 30.5148C194.578 30.7337 194.701 30.9339 194.86 31.103C195.019 31.2711 195.212 31.4034 195.426 31.491C195.646 31.584 195.891 31.6304 196.163 31.6302C196.434 31.6302 196.679 31.5838 196.899 31.491C197.112 31.4026 197.305 31.2705 197.465 31.103C197.624 30.9338 197.747 30.7336 197.826 30.5148C197.911 30.2888 197.953 30.0395 197.953 29.767C197.953 29.5001 197.911 29.2522 197.826 29.0233C197.748 28.8031 197.625 28.6014 197.465 28.4311C197.305 28.2636 197.112 28.1315 196.899 28.043C196.679 27.9505 196.434 27.9041 196.163 27.9039C195.891 27.9039 195.646 27.9503 195.426 28.043C195.212 28.1316 195.02 28.2637 194.86 28.4311C194.7 28.6014 194.577 28.803 194.498 29.0233C194.413 29.2618 194.37 29.5136 194.372 29.767ZM193.054 29.767C193.054 29.3044 193.131 28.8849 193.286 28.5085C193.431 28.1461 193.652 27.819 193.933 27.5489C194.216 27.28 194.551 27.0726 194.917 26.94C195.297 26.7983 195.712 26.7274 196.163 26.7274C196.613 26.7274 197.027 26.7983 197.407 26.94C197.774 27.0734 198.109 27.2806 198.392 27.5489C198.673 27.8194 198.893 28.1464 199.039 28.5085C199.194 28.8849 199.271 29.3044 199.271 29.767C199.271 30.2302 199.194 30.6497 199.039 31.0256C198.884 31.4015 198.669 31.7214 198.392 31.9852C198.109 32.2534 197.774 32.4607 197.407 32.5941C197.027 32.7358 196.613 32.8066 196.163 32.8066C195.712 32.8066 195.297 32.7358 194.917 32.5941C194.551 32.4614 194.216 32.2541 193.933 31.9852C193.656 31.7214 193.44 31.4015 193.286 31.0256C193.131 30.6497 193.054 30.2302 193.054 29.767Z" fill="white"/>
<path d="M200.537 26.8749H202.262L204.712 30.8948H204.728V26.8749H205.998V32.6602H204.338L201.823 28.5422H201.807V32.6602H200.537V26.8749Z" fill="white"/>
<path d="M1.40235 47.625H66.8535C70.4842 47.625 73.4705 44.8543 73.8294 41.3039C73.8535 41.0672 73.8656 40.8273 73.8656 40.5842V2.37505H8.41474C5.99398 2.37505 3.86 3.60657 2.59994 5.47937C2.34626 5.85597 2.12969 6.25646 1.9533 6.67519C1.58815 7.5423 1.40077 8.4744 1.40235 9.41583V47.625Z" fill="#0057B7"/>
<path d="M73.8296 41.3038C73.4707 44.8542 70.4841 47.6248 66.8538 47.6248H16.8526L55.0225 32.1399C56.4264 32.6604 57.8832 32.8963 59.2017 32.8963C63.156 32.8963 65.2478 30.805 65.7243 30.2618C65.7546 30.2276 65.7712 30.1834 65.7709 30.1377C65.7707 30.092 65.7536 30.048 65.723 30.0142L64.2662 28.3896L73.8658 24.4956V40.5837C73.8658 40.8271 73.8538 41.0671 73.8296 41.3038ZM8.8955 47.6248L30.4956 32.4382H35.9757C41.9899 32.4382 46.6533 28.9175 46.6533 22.3628C46.6533 15.2616 42.2691 12.4169 36.1874 12.1897L45.4993 2.37489H71.1882L54.6659 12.7893C51.3619 14.1296 48.4683 17.0998 48.4683 22.4012C48.4683 27.1181 50.7814 29.9872 53.6172 31.507L13.8872 47.6248H8.8955ZM1.40261 46.8304L9.77608 24.922C10.6626 29.2511 13.8234 31.556 17.0373 32.4489L3.42894 47.6248H1.40261V46.8304ZM1.95356 6.67504C2.12996 6.25631 2.34652 5.85581 2.6002 5.47921C3.86026 3.60608 5.99425 2.37489 8.41467 2.37489H17.2042L12.4048 14.931C10.7012 16.5976 9.52918 19.0273 9.52918 22.4012C9.52962 22.4181 9.52996 22.4351 9.53018 22.4522L1.40261 43.7174V9.41568C1.40261 8.44374 1.59867 7.51751 1.95356 6.67504ZM34.6695 12.173H28.8916C28.8425 12.1732 28.7955 12.1928 28.7608 12.2276C28.7261 12.2624 28.7064 12.3096 28.7062 12.3588V32.2524C28.7065 32.2772 28.7115 32.3017 28.7208 32.3248L6.95922 47.6248H4.92326L18.2838 32.7255C18.9374 32.8374 19.5992 32.8945 20.2623 32.8963C24.2165 32.8963 26.308 30.805 26.7848 30.2618C26.8151 30.2276 26.8317 30.1834 26.8314 30.1377C26.8312 30.092 26.8141 30.048 26.7835 30.0142L24.274 27.2155C24.2414 27.1789 24.1956 27.1567 24.1467 27.1539C24.0978 27.1511 24.0498 27.1678 24.0132 27.2005C23.5736 27.5985 22.0663 28.7957 19.8077 28.8337C16.9629 28.8811 14.0809 26.5118 14.0809 22.4012C14.0809 18.2906 17.055 15.9687 19.8406 15.9687C21.9094 15.9687 23.2419 16.9473 23.648 17.2926C23.6845 17.3236 23.7317 17.339 23.7795 17.3354C23.8272 17.3319 23.8716 17.3097 23.9032 17.2736L26.4296 14.4559C26.4597 14.4232 26.4769 14.3808 26.4781 14.3363C26.4794 14.2919 26.4645 14.2486 26.4363 14.2143C26.0226 13.7162 24.2465 11.9064 20.2623 11.9064C18.2868 11.9064 16.0308 12.4202 14.0979 13.6147L18.3938 2.37489H43.9651L34.6695 12.173ZM35.4624 28.3166H33.3383C33.314 28.3166 33.29 28.3118 33.2675 28.3024C33.2451 28.2931 33.2246 28.2794 33.2075 28.2621C33.1903 28.2449 33.1766 28.2244 33.1673 28.2018C33.158 28.1793 33.1532 28.1551 33.1532 28.1307V16.4808C33.1532 16.3781 33.236 16.2946 33.3383 16.2946H35.776C39.5386 16.2946 42.0355 18.1551 42.0355 22.1339C42.0355 26.7424 39.5958 28.3166 35.4624 28.3166ZM63.2135 27.2155C63.1807 27.1791 63.135 27.1571 63.0862 27.1543C63.0373 27.1515 62.9894 27.1681 62.9527 27.2005C62.513 27.5985 61.0057 28.7957 58.7472 28.8337C55.9024 28.8811 53.0201 26.5118 53.0201 22.4012C53.0201 18.2906 55.9944 15.9687 58.78 15.9687C60.8489 15.9687 62.1814 16.9473 62.5871 17.2926C62.6238 17.3235 62.671 17.3387 62.7188 17.3352C62.7665 17.3316 62.8109 17.3095 62.8427 17.2736L65.3691 14.4559C65.3991 14.4232 65.4164 14.3808 65.4176 14.3363C65.4188 14.2919 65.404 14.2486 65.3757 14.2143C64.962 13.7162 63.1856 11.9064 59.2017 11.9064C58.8316 11.9064 58.4507 11.9268 58.0646 11.9638L73.2773 2.37489H73.8658V23.2924L63.4754 27.5078L63.2135 27.2155ZM8.41467 0.966534C3.77486 0.966534 0 4.75686 0 9.41568V49.0332H66.8538C71.4936 49.0332 75.2684 45.2429 75.2684 40.5837V0.966534H8.41467Z" fill="white"/>
</svg>
