<svg width="101" height="21" viewBox="0 0 101 21" fill="none" xmlns="http://www.w3.org/2000/svg">
<g clip-path="url(#clip0_221_158)">
<path d="M24.9381 0.0023077C25.4412 0.0023077 29.8431 -0.0121155 31.6039 0.0311545C38.9265 0.247505 42.0567 4.27162 42.0567 10.3438C42.0567 16.4161 38.7169 20.8585 31.5061 20.8585H24.9381V0.0023077ZM31.6458 16.9494C34.3988 16.9494 37.0958 15.1753 37.0958 10.2858C37.0958 5.92994 34.9717 3.91067 31.6738 3.91067H29.7174V16.949H31.6458V16.9494Z" fill="#224A58"/>
<path d="M44.9547 0.00231934H49.72V20.8581H44.9547V0.00231934Z" fill="#224A58"/>
<path d="M53.4315 0.00231934H61.1314C66.6094 0.00231934 69.0968 1.94947 69.0968 5.49761C69.0968 7.48804 68.2584 8.94479 65.715 10.1564C69.1667 11.1516 69.5719 13.4449 69.5719 15.1901C69.5719 19.0556 67.2242 20.8585 61.5227 20.8585H53.4315V0.00231934ZM61.8441 8.38192C63.3254 8.38192 64.5132 7.58864 64.5132 6.11746C64.5132 4.64628 63.2695 3.73761 61.6205 3.73761H58.1968V8.38192H61.8441ZM61.6764 17.1225C63.6887 17.1225 64.7368 16.0407 64.7368 14.6417C64.7368 13.1416 63.535 12.2185 61.8441 12.2185H58.1968V17.1225H61.6764Z" fill="#224A58"/>
<path d="M72.0776 0.00231934H80.1618C85.6398 0.00231934 88.1272 1.94947 88.1272 5.49761C88.1272 7.48804 87.2888 8.94479 84.7454 10.1564C88.1971 11.1516 88.6024 13.4449 88.6024 15.1901C88.6024 19.0556 86.2547 20.8585 80.5531 20.8585H72.0776V0.00231934ZM80.8742 8.38192C82.3555 8.38192 83.5433 7.58864 83.5433 6.11746C83.5433 4.64628 82.2996 3.73761 80.6506 3.73761H77.2269V8.38192H80.8742ZM80.7065 17.1225C82.7188 17.1225 83.7669 16.0407 83.7669 14.6417C83.7669 13.1416 82.5651 12.2185 80.8742 12.2185H77.2269V17.1225H80.7065Z" fill="#224A58"/>
<path d="M95.2985 20.9158C94.3853 20.9158 93.449 20.733 92.4897 20.3677C91.5297 20.0028 90.6961 19.5218 89.9883 18.9254L91.8329 16.2715C92.4659 16.7525 93.0766 17.1225 93.6636 17.3821C94.2505 17.6417 94.8325 17.7715 95.4104 17.7715C96.0252 17.7715 96.4724 17.6612 96.7519 17.4398C97.0314 17.2191 97.1711 16.9256 97.1711 16.5599C97.1711 16.2333 97.0356 15.9643 96.7659 15.7522C96.4955 15.5409 96.1461 15.3437 95.7178 15.1609C95.2891 14.9784 94.8325 14.7909 94.3483 14.5984C93.7893 14.3676 93.2345 14.0791 92.6853 13.733C92.1355 13.3868 91.6743 12.9397 91.3019 12.3916C90.9288 11.8435 90.7429 11.1753 90.7429 10.3867C90.7429 9.0598 91.232 7.9831 92.2102 7.15592C93.1884 6.32946 94.4692 5.91551 96.0532 5.91551C97.1152 5.91551 98.0515 6.10302 98.862 6.47802C99.6725 6.85303 100.366 7.27131 100.944 7.73285L99.0996 10.2714C98.6147 9.88698 98.1305 9.58878 97.6463 9.37712C97.1613 9.16581 96.6771 9.0598 96.1929 9.0598C95.1309 9.0598 94.5998 9.43481 94.5998 10.1848C94.5998 10.6464 94.8653 10.9976 95.3964 11.2377C95.9274 11.4782 96.5468 11.7332 97.255 12.0022C97.851 12.2142 98.4334 12.4879 99.0018 12.8243C99.5698 13.1611 100.045 13.6032 100.427 14.1512C100.809 14.6993 101 15.4162 101 16.3003C101 17.589 100.515 18.6802 99.5468 19.5744C98.5776 20.4687 97.1613 20.9158 95.2985 20.9158Z" fill="#224A58"/>
<path d="M4.28839 0.00302124H0.727018C0.325497 0.00302124 0 0.338975 0 0.753396V4.42919C0 4.84361 0.325497 5.17956 0.727018 5.17956H4.28839C4.68991 5.17956 5.01541 4.84361 5.01541 4.42919V0.753396C5.01541 0.338975 4.68991 0.00302124 4.28839 0.00302124Z" fill="#6499AF"/>
<path d="M4.28839 7.84283H0.727018C0.325497 7.84283 0 8.17879 0 8.59321V12.269C0 12.6834 0.325497 13.0194 0.727018 13.0194H4.28839C4.68991 13.0194 5.01541 12.6834 5.01541 12.269V8.59321C5.01541 8.17879 4.68991 7.84283 4.28839 7.84283Z" fill="#2E6276"/>
<path d="M4.28839 15.6826H0.727018C0.325497 15.6826 0 16.0186 0 16.433V20.1088C0 20.5232 0.325497 20.8592 0.727018 20.8592H4.28839C4.68991 20.8592 5.01541 20.5232 5.01541 20.1088V16.433C5.01541 16.0186 4.68991 15.6826 4.28839 15.6826Z" fill="#ADCFDC"/>
<path d="M11.8842 0.00302124H8.32284C7.92132 0.00302124 7.59583 0.338975 7.59583 0.753396V4.42919C7.59583 4.84361 7.92132 5.17956 8.32284 5.17956H11.8842C12.2857 5.17956 12.6112 4.84361 12.6112 4.42919V0.753396C12.6112 0.338975 12.2857 0.00302124 11.8842 0.00302124Z" fill="#2E6276"/>
<path d="M11.8842 7.84283H8.32284C7.92132 7.84283 7.59583 8.17879 7.59583 8.59321V12.269C7.59583 12.6834 7.92132 13.0194 8.32284 13.0194H11.8842C12.2857 13.0194 12.6112 12.6834 12.6112 12.269V8.59321C12.6112 8.17879 12.2857 7.84283 11.8842 7.84283Z" fill="#6499AF"/>
<path d="M11.8842 15.6826H8.32284C7.92132 15.6826 7.59583 16.0186 7.59583 16.433V20.1088C7.59583 20.5232 7.92132 20.8592 8.32284 20.8592H11.8842C12.2857 20.8592 12.6112 20.5232 12.6112 20.1088V16.433C12.6112 16.0186 12.2857 15.6826 11.8842 15.6826Z" fill="#2E6276"/>
<path d="M19.4799 0.00302124H15.9185C15.517 0.00302124 15.1915 0.338975 15.1915 0.753396V4.42919C15.1915 4.84361 15.517 5.17956 15.9185 5.17956H19.4799C19.8814 5.17956 20.2069 4.84361 20.2069 4.42919V0.753396C20.2069 0.338975 19.8814 0.00302124 19.4799 0.00302124Z" fill="#2E6276"/>
<path d="M19.4799 7.84283H15.9185C15.517 7.84283 15.1915 8.17879 15.1915 8.59321V12.269C15.1915 12.6834 15.517 13.0194 15.9185 13.0194H19.4799C19.8814 13.0194 20.2069 12.6834 20.2069 12.269V8.59321C20.2069 8.17879 19.8814 7.84283 19.4799 7.84283Z" fill="#2E6276"/>
<path d="M19.4799 15.6826H15.9185C15.517 15.6826 15.1915 16.0186 15.1915 16.433V20.1088C15.1915 20.5232 15.517 20.8592 15.9185 20.8592H19.4799C19.8814 20.8592 20.2069 20.5232 20.2069 20.1088V16.433C20.2069 16.0186 19.8814 15.6826 19.4799 15.6826Z" fill="#6499AF"/>
<path d="M9.43445 1.63836L1.76147 9.67201L3.25425 11.1909L10.9272 3.15721L9.43445 1.63836Z" fill="#2E6276"/>
<path d="M16.9507 9.67532L9.3623 17.5075L10.8445 19.0373L18.4329 11.2051L16.9507 9.67532Z" fill="#2E6276"/>
<path d="M10.9354 1.64768L9.42627 3.14922L16.9369 11.1906L18.446 9.68907L10.9354 1.64768Z" fill="#2E6276"/>
</g>
<defs>
<clipPath id="clip0_221_158">
<rect width="101" height="21" fill="white"/>
</clipPath>
</defs>
</svg>
