<svg width="540" height="333" viewBox="0 0 540 333" fill="none" xmlns="http://www.w3.org/2000/svg">
<rect width="540" height="333" rx="8" fill="#F3F3F3"/>
<path d="M263.7 184L286.45 169.417C287.539 168.717 288.083 167.744 288.083 166.5C288.083 165.256 287.539 164.283 286.45 163.583L263.7 149C262.533 148.222 261.347 148.164 260.142 148.825C258.936 149.486 258.333 150.517 258.333 151.917V181.083C258.333 182.483 258.936 183.514 260.142 184.175C261.347 184.836 262.533 184.778 263.7 184ZM270 213.167C263.544 213.167 257.478 211.942 251.8 209.492C246.122 207.042 241.183 203.717 236.983 199.517C232.783 195.317 229.458 190.378 227.008 184.7C224.558 179.022 223.333 172.956 223.333 166.5C223.333 160.044 224.558 153.978 227.008 148.3C229.458 142.622 232.783 137.683 236.983 133.483C241.183 129.283 246.122 125.958 251.8 123.508C257.478 121.058 263.544 119.833 270 119.833C276.455 119.833 282.522 121.058 288.2 123.508C293.878 125.958 298.817 129.283 303.017 133.483C307.217 137.683 310.542 142.622 312.992 148.3C315.442 153.978 316.667 160.044 316.667 166.5C316.667 172.956 315.442 179.022 312.992 184.7C310.542 190.378 307.217 195.317 303.017 199.517C298.817 203.717 293.878 207.042 288.2 209.492C282.522 211.942 276.455 213.167 270 213.167ZM270 203.833C280.422 203.833 289.25 200.217 296.483 192.983C303.717 185.75 307.333 176.922 307.333 166.5C307.333 156.078 303.717 147.25 296.483 140.017C289.25 132.783 280.422 129.167 270 129.167C259.578 129.167 250.75 132.783 243.517 140.017C236.283 147.25 232.667 156.078 232.667 166.5C232.667 176.922 236.283 185.75 243.517 192.983C250.75 200.217 259.578 203.833 270 203.833Z" fill="#919191"/>
</svg>
